<svg width="2950" height="628" viewBox="0 0 2950 628" fill="none" xmlns="http://www.w3.org/2000/svg">
<g clip-path="url(#clip0_2_344)">
<path d="M2604.75 96.714C2612.26 82.4507 2632.69 82.4757 2640.17 96.7569L2702.05 214.992C2704.86 220.37 2709.97 224.179 2715.92 225.346L2841.46 249.931C2856.47 252.87 2862.76 270.88 2852.84 282.523L2763.35 387.626C2759.63 391.996 2757.97 397.755 2758.78 403.437L2777.28 532.153C2779.53 547.833 2763.53 559.784 2749.13 553.172L2631 498.903C2625.61 496.43 2619.41 496.471 2614.06 499.017L2499.9 553.325C2485.86 560.004 2469.9 548.814 2471.4 533.34L2484.67 396.141C2485.2 390.629 2483.42 385.143 2479.76 380.989L2393.04 282.636C2382.83 271.054 2389.04 252.76 2404.19 249.784L2528.61 225.344C2534.55 224.178 2539.64 220.388 2542.46 215.036L2604.75 96.714Z" fill="#FFC107"/>
</g>
<g clip-path="url(#clip1_2_344)">
<path d="M2641.25 96.714C2633.74 82.4507 2613.31 82.4757 2605.83 96.7569L2543.95 214.992C2541.14 220.37 2536.03 224.179 2530.08 225.346L2404.54 249.931C2389.53 252.87 2383.24 270.88 2393.16 282.523L2482.65 387.626C2486.37 391.996 2488.03 397.755 2487.22 403.437L2468.72 532.153C2466.47 547.833 2482.47 559.784 2496.87 553.172L2615 498.903C2620.39 496.43 2626.59 496.471 2631.94 499.017L2746.1 553.325C2760.14 560.004 2776.1 548.814 2774.6 533.34L2761.33 396.141C2760.8 390.629 2762.58 385.143 2766.24 380.989L2852.96 282.636C2863.17 271.054 2856.96 252.76 2841.81 249.784L2717.39 225.344C2711.45 224.178 2706.36 220.388 2703.54 215.036L2641.25 96.714Z" fill="#F0F0F0"/>
</g>
<path d="M255.75 94.7139C263.259 80.4506 283.692 80.4756 291.167 94.7568L353.048 212.992C355.862 218.37 360.967 222.179 366.924 223.346L492.458 247.931C507.465 250.87 513.756 268.88 503.842 280.523L414.353 385.626C410.631 389.996 408.968 395.755 409.784 401.437L428.277 530.153C430.53 545.833 414.528 557.784 400.133 551.172L281.997 496.903C276.612 494.43 270.408 494.471 265.057 497.017L150.898 551.325C136.86 558.004 120.903 546.814 122.399 531.34L135.665 394.141C136.198 388.629 134.421 383.143 130.759 378.989L44.043 280.636C33.8317 269.054 40.0392 250.76 55.1904 247.784L179.614 223.344C185.549 222.178 190.638 218.388 193.456 213.036L255.75 94.7139Z" fill="#FFC107"/>
<path d="M255.75 94.7139C263.259 80.4506 283.692 80.4756 291.167 94.7568L353.048 212.992C355.862 218.37 360.967 222.179 366.924 223.346L492.458 247.931C507.465 250.87 513.756 268.88 503.842 280.523L414.353 385.626C410.631 389.996 408.968 395.755 409.784 401.437L428.277 530.153C430.53 545.833 414.528 557.784 400.133 551.172L281.997 496.903C276.612 494.43 270.408 494.471 265.057 497.017L150.898 551.325C136.86 558.004 120.903 546.814 122.399 531.34L135.665 394.141C136.198 388.629 134.421 383.143 130.759 378.989L44.043 280.636C33.8317 269.054 40.0392 250.76 55.1904 247.784L179.614 223.344C185.549 222.178 190.638 218.388 193.456 213.036L255.75 94.7139Z" stroke="black"/>
<path d="M843.75 94.7139C851.259 80.4506 871.692 80.4756 879.167 94.7568L941.048 212.992C943.862 218.37 948.967 222.179 954.924 223.346L1080.46 247.931C1095.47 250.87 1101.76 268.88 1091.84 280.523L1002.35 385.626C998.631 389.996 996.968 395.755 997.784 401.437L1016.28 530.153C1018.53 545.833 1002.53 557.784 988.133 551.172L869.997 496.903C864.612 494.43 858.408 494.471 853.057 497.017L738.898 551.325C724.86 558.004 708.903 546.814 710.399 531.34L723.665 394.141C724.198 388.629 722.421 383.143 718.759 378.989L632.043 280.636C621.832 269.054 628.039 250.76 643.19 247.784L767.614 223.344C773.549 222.178 778.638 218.388 781.456 213.036L843.75 94.7139Z" fill="#FFC107"/>
<path d="M843.75 94.7139C851.259 80.4506 871.692 80.4756 879.167 94.7568L941.048 212.992C943.862 218.37 948.967 222.179 954.924 223.346L1080.46 247.931C1095.47 250.87 1101.76 268.88 1091.84 280.523L1002.35 385.626C998.631 389.996 996.968 395.755 997.784 401.437L1016.28 530.153C1018.53 545.833 1002.53 557.784 988.133 551.172L869.997 496.903C864.612 494.43 858.408 494.471 853.057 497.017L738.898 551.325C724.86 558.004 708.903 546.814 710.399 531.34L723.665 394.141C724.198 388.629 722.421 383.143 718.759 378.989L632.043 280.636C621.832 269.054 628.039 250.76 643.19 247.784L767.614 223.344C773.549 222.178 778.638 218.388 781.456 213.036L843.75 94.7139Z" stroke="black"/>
<path d="M1429.75 94.7139C1437.26 80.4506 1457.69 80.4756 1465.17 94.7568L1527.05 212.992C1529.86 218.37 1534.97 222.179 1540.92 223.346L1666.46 247.931C1681.47 250.87 1687.76 268.88 1677.84 280.523L1588.35 385.626C1584.63 389.996 1582.97 395.755 1583.78 401.437L1602.28 530.153C1604.53 545.833 1588.53 557.784 1574.13 551.172L1456 496.903C1450.61 494.43 1444.41 494.471 1439.06 497.017L1324.9 551.325C1310.86 558.004 1294.9 546.814 1296.4 531.34L1309.67 394.141C1310.2 388.629 1308.42 383.143 1304.76 378.989L1218.04 280.636C1207.83 269.054 1214.04 250.76 1229.19 247.784L1353.61 223.344C1359.55 222.178 1364.64 218.388 1367.46 213.036L1429.75 94.7139Z" fill="#FFC107"/>
<path d="M1429.75 94.7139C1437.26 80.4506 1457.69 80.4756 1465.17 94.7568L1527.05 212.992C1529.86 218.37 1534.97 222.179 1540.92 223.346L1666.46 247.931C1681.47 250.87 1687.76 268.88 1677.84 280.523L1588.35 385.626C1584.63 389.996 1582.97 395.755 1583.78 401.437L1602.28 530.153C1604.53 545.833 1588.53 557.784 1574.13 551.172L1456 496.903C1450.61 494.43 1444.41 494.471 1439.06 497.017L1324.9 551.325C1310.86 558.004 1294.9 546.814 1296.4 531.34L1309.67 394.141C1310.2 388.629 1308.42 383.143 1304.76 378.989L1218.04 280.636C1207.83 269.054 1214.04 250.76 1229.19 247.784L1353.61 223.344C1359.55 222.178 1364.64 218.388 1367.46 213.036L1429.75 94.7139Z" stroke="black"/>
<path d="M2017.75 94.7139C2025.26 80.4506 2045.69 80.4756 2053.17 94.7568L2115.05 212.992C2117.86 218.37 2122.97 222.179 2128.92 223.346L2254.46 247.931C2269.47 250.87 2275.76 268.88 2265.84 280.523L2176.35 385.626C2172.63 389.996 2170.97 395.755 2171.78 401.437L2190.28 530.153C2192.53 545.833 2176.53 557.784 2162.13 551.172L2044 496.903C2038.61 494.43 2032.41 494.471 2027.06 497.017L1912.9 551.325C1898.86 558.004 1882.9 546.814 1884.4 531.34L1897.67 394.141C1898.2 388.629 1896.42 383.143 1892.76 378.989L1806.04 280.636C1795.83 269.054 1802.04 250.76 1817.19 247.784L1941.61 223.344C1947.55 222.178 1952.64 218.388 1955.46 213.036L2017.75 94.7139Z" fill="#FFC107"/>
<path d="M2017.75 94.7139C2025.26 80.4506 2045.69 80.4756 2053.17 94.7568L2115.05 212.992C2117.86 218.37 2122.97 222.179 2128.92 223.346L2254.46 247.931C2269.47 250.87 2275.76 268.88 2265.84 280.523L2176.35 385.626C2172.63 389.996 2170.97 395.755 2171.78 401.437L2190.28 530.153C2192.53 545.833 2176.53 557.784 2162.13 551.172L2044 496.903C2038.61 494.43 2032.41 494.471 2027.06 497.017L1912.9 551.325C1898.86 558.004 1882.9 546.814 1884.4 531.34L1897.67 394.141C1898.2 388.629 1896.42 383.143 1892.76 378.989L1806.04 280.636C1795.83 269.054 1802.04 250.76 1817.19 247.784L1941.61 223.344C1947.55 222.178 1952.64 218.388 1955.46 213.036L2017.75 94.7139Z" stroke="black"/>
<defs>
<clipPath id="clip0_2_344">
<rect width="296" height="560" fill="white" transform="translate(2327 34)"/>
</clipPath>
<clipPath id="clip1_2_344">
<rect width="296" height="560" fill="white" transform="matrix(-1 0 0 1 2919 34)"/>
</clipPath>
</defs>
</svg>
