<svg width="457" height="491" viewBox="0 0 457 491" fill="none" xmlns="http://www.w3.org/2000/svg">
<path d="M33.8668 20.5333C26.0002 24.1333 19.0668 30.8 14.9335 38.5333L11.3335 45.3333V246V446.667L14.9335 453.467C19.0668 461.333 26.1335 467.867 34.5335 471.867C40.6668 474.667 40.9335 474.667 216 474.933C355.733 475.2 392 474.933 394.667 473.6C397.067 472.4 398.133 470.667 398.4 467.333C399.2 460 397.067 459.333 373.733 459.333H353.333V421.333V383.333H362.4C376.667 383.333 376 385.467 376 339.6C376 318.133 376.4 300.667 376.933 300.667C377.467 300.667 383.6 306.4 390.667 313.333C404.267 326.533 409.867 330 418.267 330C433.067 329.867 446.8 314.8 444.933 300.667C443.733 291.733 440.267 286.933 420.933 267.6L401.867 248.533L408.933 234.267C418.133 215.733 421.6 200.667 421.6 178.667C421.6 143.067 409.733 112.8 386 87.6L376 76.9333V61.8666C376 48.6666 375.6 45.7333 372.8 39.8666C369.067 31.8666 362.4 24.8 355.2 21.2C350.133 18.8 345.333 18.6666 194.667 18.4C45.8668 18 39.0668 18.1333 33.8668 20.5333ZM72.0002 148.533C72.0002 274.933 71.6002 268.667 79.3335 268.667C87.0668 268.667 86.6668 274.933 86.6668 148.533V32.6666H214.533C301.733 32.6666 343.733 33.0666 346.267 34.1333C351.333 36 357.333 41.7333 359.467 46.9333C360.533 49.3333 361.333 54.9333 361.333 59.3333V67.4666L353.067 62.8C332.267 51.2 304.8 45.8666 280.8 48.6666C248.267 52.4 220.933 66.1333 197.867 90.4C178.267 110.933 167.333 134 164 162.667C156.267 227.867 198.667 287.2 264.933 303.6C273.733 305.733 280.933 306.533 294 306.533C315.467 306.667 330.267 303.333 348.8 294L361.333 287.733V327.467V367.333L200.933 367.6L40.6668 368L33.6002 371.467L26.6668 374.933L26.9335 210.8L27.3335 46.6666L30.5335 42.1333C35.6002 35.0666 42.4002 32.6666 58.4002 32.6666H72.0002V148.533ZM310.667 64.8C359.067 72.5333 397.2 110.8 405.467 160C407.333 171.333 406.267 195.467 403.333 206.667C397.6 228.267 381.2 253.067 363.6 266.8C352.8 275.2 334.133 284.667 321.333 288.267C308.267 291.867 277.733 291.467 263.333 287.6C211.733 273.467 179.6 231.2 179.6 177.333C179.6 143.6 192.133 114.133 215.6 92.6666C239.333 71.0666 278.267 59.6 310.667 64.8ZM411.067 279.2C428.4 296.8 429.333 298 429.333 303.067C429.333 309.733 424.8 314 417.6 314C413.333 314 411.2 312.267 394.4 295.733L376 277.467L383.733 269.2C387.867 264.667 391.733 260.933 392.133 260.8C392.533 260.8 401.067 269.067 411.067 279.2ZM338.667 421.333V459.333H191.733C51.2002 459.333 44.4002 459.2 39.2002 456.8C36.1335 455.467 32.2668 452.267 30.5335 449.867C27.4668 445.467 27.3335 444.533 27.3335 421.2C27.3335 397.2 27.3335 397.067 30.9335 392.4C38.2668 382.8 26.6668 383.333 191.067 383.333H338.667V421.333Z" fill="black"/>
<path d="M74.9333 293.467C72.1333 295.467 72 296.267 72 318C72 336.667 72.4 340.8 74.1333 342.533C76.5333 344.933 80.4 345.2 84.1333 343.333C86.5333 342 86.6667 340.267 86.6667 318.667C86.6667 296.267 86.5333 295.467 83.7333 293.467C82.1333 292.267 80.1333 291.333 79.3333 291.333C78.5333 291.333 76.5333 292.267 74.9333 293.467Z" fill="black"/>
<path d="M282 78.7999C256.667 82.5333 237.467 92.3999 220.934 109.867C174.934 158.667 188.667 235.6 248.667 265.333C265.734 273.733 274.8 275.867 294 275.867C307.067 276 311.734 275.333 320 272.8C347.2 264.4 369.334 245.733 381.467 221.333C388.8 206.267 391.067 196.133 391.2 178.667C391.2 160.667 388.667 149.867 380.534 133.333C367.867 107.333 343.867 87.7333 317.334 81.3332C308.267 79.1999 288.8 77.8666 282 78.7999ZM319.467 98.5333C352.8 109.2 374 137.6 375.734 174C376.934 199.2 369.467 218 351.467 236.133C334.534 253.067 316.267 260.667 292.667 260.667C268.934 260.667 250.8 253.067 233.867 236.133C216 218 208.267 198.133 209.734 173.467C212 133.2 237.467 103.867 277.467 95.3333C287.6 93.1999 307.467 94.6666 319.467 98.5333Z" fill="black"/>
<path d="M256 127.2C254 131.067 254.4 134.667 257.067 137.067C259.2 139.067 263.733 139.333 292.933 139.333C323.467 139.333 326.4 139.2 328.4 136.933C330.933 134.133 331.2 130.933 329.333 127.2C328 124.8 326.133 124.667 292.667 124.667C259.2 124.667 257.333 124.8 256 127.2Z" fill="black"/>
<path d="M260 154.933C254.667 156.933 252.934 164.133 257.067 167.733C259.2 169.733 263.734 170 292.934 170C323.467 170 326.4 169.867 328.4 167.6C331.2 164.533 331.334 160.667 328.8 157.2C327.067 154.8 324.8 154.667 294.4 154.4C276.534 154.267 261.067 154.533 260 154.933Z" fill="black"/>
<path d="M257.334 187.333C255.867 188.8 254.667 191.2 254.667 192.667C254.667 194.133 255.867 196.533 257.334 198C259.867 200.533 261.734 200.667 292.4 200.667C328.267 200.667 330.667 200.133 330.667 192.667C330.667 185.2 328.267 184.667 292.4 184.667C261.734 184.667 259.867 184.8 257.334 187.333Z" fill="black"/>
<path d="M257.6 217.467C253.867 220 253.734 225.067 257.334 228.667C259.867 231.2 261.734 231.333 292.667 231.333C323.6 231.333 325.467 231.2 328 228.667C331.334 225.333 331.467 220.4 328.267 217.6C324.667 214.267 262.134 214.267 257.6 217.467Z" fill="black"/>
<path d="M58.1333 394.267C55.3333 398.267 55.4667 400.133 58.6667 403.333C60.4 405.067 63.0667 406 66.6667 406H72V426.533C72 455.2 72.1333 455.333 98.6667 444.667C107.733 440.933 116.133 438 117.333 438C118.533 438 126.933 440.933 136 444.667C152.933 451.467 158.533 452.667 161.2 449.6C162 448.533 162.8 439.6 162.933 427.2L163.333 406.667L169.333 406C174 405.467 175.733 404.533 177.2 401.867C178.933 398.667 178.933 398 176.933 394.8L174.667 391.333H117.333H60.1333L58.1333 394.267ZM148 419.467C148 429.733 147.6 432.8 146.4 432.267C145.467 431.867 138.533 429.067 131.067 426.133L117.6 420.667L103.733 426.133C96.1333 429.2 89.2 431.867 88.4 432.267C87.0667 432.8 86.6667 429.733 86.6667 419.467V406H117.333H148V419.467Z" fill="black"/>
</svg>
