<svg width="2950" height="628" viewBox="0 0 2950 628" fill="none" xmlns="http://www.w3.org/2000/svg">
<path d="M2011.8 91.0049C2022.12 72.199 2049.36 72.3821 2059.37 91.5117L2121.25 209.746L2121.42 210.071C2123.29 213.395 2126.52 215.741 2130.27 216.476L2255.8 241.062L2256.28 241.158C2276.04 245.375 2284.32 269.089 2271.48 284.692L2271.17 285.062L2181.68 390.164C2179.26 393.005 2178.18 396.748 2178.71 400.44L2197.21 529.157L2197.27 529.653C2199.89 550.412 2178.83 566.141 2159.67 557.737L2159.21 557.532L2041.08 503.265C2037.68 501.707 2033.79 501.683 2030.39 503.188L2030.06 503.338L1915.91 557.646C1896.95 566.662 1875.41 551.555 1877.43 530.666L1890.7 393.467L1890.73 393.131C1890.96 389.774 1889.89 386.455 1887.73 383.874L1887.51 383.618L1800.79 285.266C1787.01 269.63 1795.39 244.933 1815.84 240.915L1940.26 216.475L1940.62 216.398C1944.33 215.562 1947.49 213.145 1949.26 209.775V209.774L2011.56 91.4531L2011.8 91.0049Z" fill="#F0F0F0" stroke="#FFC107" stroke-width="14"/>
<path d="M2598.8 91.0049C2609.12 72.199 2636.36 72.3821 2646.37 91.5117L2708.25 209.746L2708.42 210.071C2710.29 213.395 2713.52 215.741 2717.27 216.476L2842.8 241.062L2843.28 241.158C2863.04 245.375 2871.32 269.089 2858.48 284.692L2858.17 285.062L2768.68 390.164C2766.26 393.005 2765.18 396.748 2765.71 400.44L2784.21 529.157L2784.27 529.653C2786.89 550.412 2765.83 566.141 2746.67 557.737L2746.21 557.532L2628.08 503.265C2624.68 501.707 2620.79 501.683 2617.39 503.188L2617.06 503.338L2502.91 557.646C2483.95 566.662 2462.41 551.555 2464.43 530.666L2477.7 393.467L2477.73 393.131C2477.96 389.774 2476.89 386.455 2474.73 383.874L2474.51 383.618L2387.79 285.266C2374.01 269.63 2382.39 244.933 2402.84 240.915L2527.26 216.475L2527.62 216.398C2531.33 215.562 2534.49 213.145 2536.26 209.775V209.774L2598.56 91.4531L2598.8 91.0049Z" fill="#F0F0F0" stroke="#FFC107" stroke-width="14"/>
<g clip-path="url(#clip0_2_289)">
<path d="M1430.75 96.714C1438.26 82.4507 1458.69 82.4757 1466.17 96.7569L1528.05 214.992C1530.86 220.37 1535.97 224.179 1541.92 225.346L1667.46 249.931C1682.47 252.87 1688.76 270.88 1678.84 282.523L1589.35 387.626C1585.63 391.996 1583.97 397.755 1584.78 403.437L1603.28 532.153C1605.53 547.833 1589.53 559.784 1575.13 553.172L1457 498.903C1451.61 496.43 1445.41 496.471 1440.06 499.017L1325.9 553.325C1311.86 560.004 1295.9 548.814 1297.4 533.34L1310.67 396.141C1311.2 390.629 1309.42 385.143 1305.76 380.989L1219.04 282.636C1208.83 271.054 1215.04 252.76 1230.19 249.784L1354.61 225.344C1360.55 224.178 1365.64 220.388 1368.46 215.036L1430.75 96.714Z" fill="#FFC107"/>
</g>
<g clip-path="url(#clip1_2_289)">
<path d="M1467.25 96.714C1459.74 82.4507 1439.31 82.4757 1431.83 96.7569L1369.95 214.992C1367.14 220.37 1362.03 224.179 1356.08 225.346L1230.54 249.931C1215.53 252.87 1209.24 270.88 1219.16 282.523L1308.65 387.626C1312.37 391.996 1314.03 397.755 1313.22 403.437L1294.72 532.153C1292.47 547.833 1308.47 559.784 1322.87 553.172L1441 498.903C1446.39 496.43 1452.59 496.471 1457.94 499.017L1572.1 553.325C1586.14 560.004 1602.1 548.814 1600.6 533.34L1587.33 396.141C1586.8 390.629 1588.58 385.143 1592.24 380.989L1678.96 282.636C1689.17 271.054 1682.96 252.76 1667.81 249.784L1543.39 225.344C1537.45 224.178 1532.36 220.388 1529.54 215.036L1467.25 96.714Z" fill="#F0F0F0"/>
</g>
<path d="M255.75 94.7139C263.259 80.4506 283.692 80.4756 291.167 94.7568L353.048 212.992C355.862 218.37 360.967 222.179 366.924 223.346L492.458 247.931C507.465 250.87 513.756 268.88 503.842 280.523L414.353 385.626C410.631 389.996 408.968 395.755 409.784 401.437L428.277 530.153C430.53 545.833 414.528 557.784 400.133 551.172L281.997 496.903C276.612 494.43 270.408 494.471 265.057 497.017L150.898 551.325C136.86 558.004 120.903 546.814 122.399 531.34L135.665 394.141C136.198 388.629 134.421 383.143 130.759 378.989L44.043 280.636C33.8317 269.054 40.0392 250.76 55.1904 247.784L179.614 223.344C185.549 222.178 190.638 218.388 193.456 213.036L255.75 94.7139Z" fill="#FFC107"/>
<path d="M255.75 94.7139C263.259 80.4506 283.692 80.4756 291.167 94.7568L353.048 212.992C355.862 218.37 360.967 222.179 366.924 223.346L492.458 247.931C507.465 250.87 513.756 268.88 503.842 280.523L414.353 385.626C410.631 389.996 408.968 395.755 409.784 401.437L428.277 530.153C430.53 545.833 414.528 557.784 400.133 551.172L281.997 496.903C276.612 494.43 270.408 494.471 265.057 497.017L150.898 551.325C136.86 558.004 120.903 546.814 122.399 531.34L135.665 394.141C136.198 388.629 134.421 383.143 130.759 378.989L44.043 280.636C33.8317 269.054 40.0392 250.76 55.1904 247.784L179.614 223.344C185.549 222.178 190.638 218.388 193.456 213.036L255.75 94.7139Z" stroke="black"/>
<path d="M843.75 94.7139C851.259 80.4506 871.692 80.4756 879.167 94.7568L941.048 212.992C943.862 218.37 948.967 222.179 954.924 223.346L1080.46 247.931C1095.47 250.87 1101.76 268.88 1091.84 280.523L1002.35 385.626C998.631 389.996 996.968 395.755 997.784 401.437L1016.28 530.153C1018.53 545.833 1002.53 557.784 988.133 551.172L869.997 496.903C864.612 494.43 858.408 494.471 853.057 497.017L738.898 551.325C724.86 558.004 708.903 546.814 710.399 531.34L723.665 394.141C724.198 388.629 722.421 383.143 718.759 378.989L632.043 280.636C621.832 269.054 628.039 250.76 643.19 247.784L767.614 223.344C773.549 222.178 778.638 218.388 781.456 213.036L843.75 94.7139Z" fill="#FFC107"/>
<path d="M843.75 94.7139C851.259 80.4506 871.692 80.4756 879.167 94.7568L941.048 212.992C943.862 218.37 948.967 222.179 954.924 223.346L1080.46 247.931C1095.47 250.87 1101.76 268.88 1091.84 280.523L1002.35 385.626C998.631 389.996 996.968 395.755 997.784 401.437L1016.28 530.153C1018.53 545.833 1002.53 557.784 988.133 551.172L869.997 496.903C864.612 494.43 858.408 494.471 853.057 497.017L738.898 551.325C724.86 558.004 708.903 546.814 710.399 531.34L723.665 394.141C724.198 388.629 722.421 383.143 718.759 378.989L632.043 280.636C621.832 269.054 628.039 250.76 643.19 247.784L767.614 223.344C773.549 222.178 778.638 218.388 781.456 213.036L843.75 94.7139Z" stroke="black"/>
<defs>
<clipPath id="clip0_2_289">
<rect width="296" height="560" fill="white" transform="translate(1153 34)"/>
</clipPath>
<clipPath id="clip1_2_289">
<rect width="296" height="560" fill="white" transform="matrix(-1 0 0 1 1745 34)"/>
</clipPath>
</defs>
</svg>
