<svg width="2950" height="628" viewBox="0 0 2950 628" fill="none" xmlns="http://www.w3.org/2000/svg">
<path d="M2598.8 91.0049C2609.12 72.199 2636.36 72.3821 2646.37 91.5117L2708.25 209.746L2708.42 210.071C2710.29 213.395 2713.52 215.741 2717.27 216.476L2842.8 241.062L2843.28 241.158C2863.04 245.375 2871.32 269.089 2858.48 284.692L2858.17 285.062L2768.68 390.164C2766.26 393.005 2765.18 396.748 2765.71 400.44L2784.21 529.157L2784.27 529.653C2786.89 550.412 2765.83 566.141 2746.67 557.737L2746.21 557.532L2628.08 503.265C2624.68 501.707 2620.79 501.683 2617.39 503.188L2617.06 503.338L2502.91 557.646C2483.95 566.662 2462.41 551.555 2464.43 530.666L2477.7 393.467L2477.73 393.131C2477.96 389.774 2476.89 386.455 2474.73 383.874L2474.51 383.618L2387.79 285.266C2374.01 269.63 2382.39 244.933 2402.84 240.915L2527.26 216.475L2527.62 216.398C2531.33 215.562 2534.49 213.145 2536.26 209.775V209.774L2598.56 91.4531L2598.8 91.0049Z" fill="#F0F0F0" stroke="#FFC107" stroke-width="14"/>
<g clip-path="url(#clip0_2_316)">
<path d="M2017.75 96.714C2025.26 82.4507 2045.69 82.4757 2053.17 96.7569L2115.05 214.992C2117.86 220.37 2122.97 224.179 2128.92 225.346L2254.46 249.931C2269.47 252.87 2275.76 270.88 2265.84 282.523L2176.35 387.626C2172.63 391.996 2170.97 397.755 2171.78 403.437L2190.28 532.153C2192.53 547.833 2176.53 559.784 2162.13 553.172L2044 498.903C2038.61 496.43 2032.41 496.471 2027.06 499.017L1912.9 553.325C1898.86 560.004 1882.9 548.814 1884.4 533.34L1897.67 396.141C1898.2 390.629 1896.42 385.143 1892.76 380.989L1806.04 282.636C1795.83 271.054 1802.04 252.76 1817.19 249.784L1941.61 225.344C1947.55 224.178 1952.64 220.388 1955.46 215.036L2017.75 96.714Z" fill="#FFC107"/>
</g>
<g clip-path="url(#clip1_2_316)">
<path d="M2054.25 96.714C2046.74 82.4507 2026.31 82.4757 2018.83 96.7569L1956.95 214.992C1954.14 220.37 1949.03 224.179 1943.08 225.346L1817.54 249.931C1802.53 252.87 1796.24 270.88 1806.16 282.523L1895.65 387.626C1899.37 391.996 1901.03 397.755 1900.22 403.437L1881.72 532.153C1879.47 547.833 1895.47 559.784 1909.87 553.172L2028 498.903C2033.39 496.43 2039.59 496.471 2044.94 499.017L2159.1 553.325C2173.14 560.004 2189.1 548.814 2187.6 533.34L2174.33 396.141C2173.8 390.629 2175.58 385.143 2179.24 380.989L2265.96 282.636C2276.17 271.054 2269.96 252.76 2254.81 249.784L2130.39 225.344C2124.45 224.178 2119.36 220.388 2116.54 215.036L2054.25 96.714Z" fill="#F0F0F0"/>
</g>
<path d="M255.75 94.7139C263.259 80.4506 283.692 80.4756 291.167 94.7568L353.048 212.992C355.862 218.37 360.967 222.179 366.924 223.346L492.458 247.931C507.465 250.87 513.756 268.88 503.842 280.523L414.353 385.626C410.631 389.996 408.968 395.755 409.784 401.437L428.277 530.153C430.53 545.833 414.528 557.784 400.133 551.172L281.997 496.903C276.612 494.43 270.408 494.471 265.057 497.017L150.898 551.325C136.86 558.004 120.903 546.814 122.399 531.34L135.665 394.141C136.198 388.629 134.421 383.143 130.759 378.989L44.043 280.636C33.8317 269.054 40.0392 250.76 55.1904 247.784L179.614 223.344C185.549 222.178 190.638 218.388 193.456 213.036L255.75 94.7139Z" fill="#FFC107"/>
<path d="M255.75 94.7139C263.259 80.4506 283.692 80.4756 291.167 94.7568L353.048 212.992C355.862 218.37 360.967 222.179 366.924 223.346L492.458 247.931C507.465 250.87 513.756 268.88 503.842 280.523L414.353 385.626C410.631 389.996 408.968 395.755 409.784 401.437L428.277 530.153C430.53 545.833 414.528 557.784 400.133 551.172L281.997 496.903C276.612 494.43 270.408 494.471 265.057 497.017L150.898 551.325C136.86 558.004 120.903 546.814 122.399 531.34L135.665 394.141C136.198 388.629 134.421 383.143 130.759 378.989L44.043 280.636C33.8317 269.054 40.0392 250.76 55.1904 247.784L179.614 223.344C185.549 222.178 190.638 218.388 193.456 213.036L255.75 94.7139Z" stroke="black"/>
<path d="M843.75 94.7139C851.259 80.4506 871.692 80.4756 879.167 94.7568L941.048 212.992C943.862 218.37 948.967 222.179 954.924 223.346L1080.46 247.931C1095.47 250.87 1101.76 268.88 1091.84 280.523L1002.35 385.626C998.631 389.996 996.968 395.755 997.784 401.437L1016.28 530.153C1018.53 545.833 1002.53 557.784 988.133 551.172L869.997 496.903C864.612 494.43 858.408 494.471 853.057 497.017L738.898 551.325C724.86 558.004 708.903 546.814 710.399 531.34L723.665 394.141C724.198 388.629 722.421 383.143 718.759 378.989L632.043 280.636C621.832 269.054 628.039 250.76 643.19 247.784L767.614 223.344C773.549 222.178 778.638 218.388 781.456 213.036L843.75 94.7139Z" fill="#FFC107"/>
<path d="M843.75 94.7139C851.259 80.4506 871.692 80.4756 879.167 94.7568L941.048 212.992C943.862 218.37 948.967 222.179 954.924 223.346L1080.46 247.931C1095.47 250.87 1101.76 268.88 1091.84 280.523L1002.35 385.626C998.631 389.996 996.968 395.755 997.784 401.437L1016.28 530.153C1018.53 545.833 1002.53 557.784 988.133 551.172L869.997 496.903C864.612 494.43 858.408 494.471 853.057 497.017L738.898 551.325C724.86 558.004 708.903 546.814 710.399 531.34L723.665 394.141C724.198 388.629 722.421 383.143 718.759 378.989L632.043 280.636C621.832 269.054 628.039 250.76 643.19 247.784L767.614 223.344C773.549 222.178 778.638 218.388 781.456 213.036L843.75 94.7139Z" stroke="black"/>
<path d="M1429.75 94.7139C1437.26 80.4506 1457.69 80.4756 1465.17 94.7568L1527.05 212.992C1529.86 218.37 1534.97 222.179 1540.92 223.346L1666.46 247.931C1681.47 250.87 1687.76 268.88 1677.84 280.523L1588.35 385.626C1584.63 389.996 1582.97 395.755 1583.78 401.437L1602.28 530.153C1604.53 545.833 1588.53 557.784 1574.13 551.172L1456 496.903C1450.61 494.43 1444.41 494.471 1439.06 497.017L1324.9 551.325C1310.86 558.004 1294.9 546.814 1296.4 531.34L1309.67 394.141C1310.2 388.629 1308.42 383.143 1304.76 378.989L1218.04 280.636C1207.83 269.054 1214.04 250.76 1229.19 247.784L1353.61 223.344C1359.55 222.178 1364.64 218.388 1367.46 213.036L1429.75 94.7139Z" fill="#FFC107"/>
<path d="M1429.75 94.7139C1437.26 80.4506 1457.69 80.4756 1465.17 94.7568L1527.05 212.992C1529.86 218.37 1534.97 222.179 1540.92 223.346L1666.46 247.931C1681.47 250.87 1687.76 268.88 1677.84 280.523L1588.35 385.626C1584.63 389.996 1582.97 395.755 1583.78 401.437L1602.28 530.153C1604.53 545.833 1588.53 557.784 1574.13 551.172L1456 496.903C1450.61 494.43 1444.41 494.471 1439.06 497.017L1324.9 551.325C1310.86 558.004 1294.9 546.814 1296.4 531.34L1309.67 394.141C1310.2 388.629 1308.42 383.143 1304.76 378.989L1218.04 280.636C1207.83 269.054 1214.04 250.76 1229.19 247.784L1353.61 223.344C1359.55 222.178 1364.64 218.388 1367.46 213.036L1429.75 94.7139Z" stroke="black"/>
<defs>
<clipPath id="clip0_2_316">
<rect width="296" height="560" fill="white" transform="translate(1740 34)"/>
</clipPath>
<clipPath id="clip1_2_316">
<rect width="296" height="560" fill="white" transform="matrix(-1 0 0 1 2332 34)"/>
</clipPath>
</defs>
</svg>
