<svg width="2950" height="628" viewBox="0 0 2950 628" fill="none" xmlns="http://www.w3.org/2000/svg">
<path d="M1424.8 91.0049C1435.12 72.199 1462.36 72.3821 1472.37 91.5117L1534.25 209.746L1534.42 210.071C1536.29 213.395 1539.52 215.741 1543.27 216.476L1668.8 241.062L1669.28 241.158C1689.04 245.375 1697.32 269.089 1684.48 284.692L1684.17 285.062L1594.68 390.164C1592.26 393.005 1591.18 396.748 1591.71 400.44L1610.21 529.157L1610.27 529.653C1612.89 550.412 1591.83 566.141 1572.67 557.737L1572.21 557.532L1454.08 503.265C1450.68 501.707 1446.79 501.683 1443.39 503.188L1443.06 503.338L1328.91 557.646C1309.95 566.662 1288.41 551.555 1290.43 530.666L1303.7 393.467L1303.73 393.131C1303.96 389.774 1302.89 386.455 1300.73 383.874L1300.51 383.618L1213.79 285.266C1200.01 269.63 1208.39 244.933 1228.84 240.915L1353.26 216.475L1353.62 216.398C1357.33 215.562 1360.49 213.145 1362.26 209.775V209.774L1424.56 91.4531L1424.8 91.0049Z" fill="#F0F0F0" stroke="#FFC107" stroke-width="14"/>
<path d="M2011.8 91.0049C2022.12 72.199 2049.36 72.3821 2059.37 91.5117L2121.25 209.746L2121.42 210.071C2123.29 213.395 2126.52 215.741 2130.27 216.476L2255.8 241.062L2256.28 241.158C2276.04 245.375 2284.32 269.089 2271.48 284.692L2271.17 285.062L2181.68 390.164C2179.26 393.005 2178.18 396.748 2178.71 400.44L2197.21 529.157L2197.27 529.653C2199.89 550.412 2178.83 566.141 2159.67 557.737L2159.21 557.532L2041.08 503.265C2037.68 501.707 2033.79 501.683 2030.39 503.188L2030.06 503.338L1915.91 557.646C1896.95 566.662 1875.41 551.555 1877.43 530.666L1890.7 393.467L1890.73 393.131C1890.96 389.774 1889.89 386.455 1887.73 383.874L1887.51 383.618L1800.79 285.266C1787.01 269.63 1795.39 244.933 1815.84 240.915L1940.26 216.475L1940.62 216.398C1944.33 215.562 1947.49 213.145 1949.26 209.775V209.774L2011.56 91.4531L2011.8 91.0049Z" fill="#F0F0F0" stroke="#FFC107" stroke-width="14"/>
<path d="M2598.8 91.0049C2609.12 72.199 2636.36 72.3821 2646.37 91.5117L2708.25 209.746L2708.42 210.071C2710.29 213.395 2713.52 215.741 2717.27 216.476L2842.8 241.062L2843.28 241.158C2863.04 245.375 2871.32 269.089 2858.48 284.692L2858.17 285.062L2768.68 390.164C2766.26 393.005 2765.18 396.748 2765.71 400.44L2784.21 529.157L2784.27 529.653C2786.89 550.412 2765.83 566.141 2746.67 557.737L2746.21 557.532L2628.08 503.265C2624.68 501.707 2620.79 501.683 2617.39 503.188L2617.06 503.338L2502.91 557.646C2483.95 566.662 2462.41 551.555 2464.43 530.666L2477.7 393.467L2477.73 393.131C2477.96 389.774 2476.89 386.455 2474.73 383.874L2474.51 383.618L2387.79 285.266C2374.01 269.63 2382.39 244.933 2402.84 240.915L2527.26 216.475L2527.62 216.398C2531.33 215.562 2534.49 213.145 2536.26 209.775V209.774L2598.56 91.4531L2598.8 91.0049Z" fill="#F0F0F0" stroke="#FFC107" stroke-width="14"/>
<g clip-path="url(#clip0_2_262)">
<path d="M843.75 96.714C851.259 82.4507 871.692 82.4757 879.167 96.7569L941.048 214.992C943.862 220.37 948.967 224.179 954.924 225.346L1080.46 249.931C1095.47 252.87 1101.76 270.88 1091.84 282.523L1002.35 387.626C998.631 391.996 996.968 397.755 997.784 403.437L1016.28 532.153C1018.53 547.833 1002.53 559.784 988.133 553.172L869.997 498.903C864.612 496.43 858.408 496.471 853.057 499.017L738.898 553.325C724.86 560.004 708.903 548.814 710.399 533.34L723.665 396.141C724.198 390.629 722.421 385.143 718.759 380.989L632.043 282.636C621.832 271.054 628.039 252.76 643.19 249.784L767.614 225.344C773.549 224.178 778.638 220.388 781.456 215.036L843.75 96.714Z" fill="#FFC107"/>
</g>
<g clip-path="url(#clip1_2_262)">
<path d="M880.25 96.714C872.741 82.4507 852.308 82.4757 844.833 96.7569L782.952 214.992C780.138 220.37 775.033 224.179 769.076 225.346L643.542 249.931C628.535 252.87 622.244 270.88 632.158 282.523L721.647 387.626C725.369 391.996 727.032 397.755 726.216 403.437L707.723 532.153C705.47 547.833 721.472 559.784 735.867 553.172L854.003 498.903C859.388 496.43 865.592 496.471 870.943 499.017L985.102 553.325C999.14 560.004 1015.1 548.814 1013.6 533.34L1000.33 396.141C999.802 390.629 1001.58 385.143 1005.24 380.989L1091.96 282.636C1102.17 271.054 1095.96 252.76 1080.81 249.784L956.386 225.344C950.451 224.178 945.362 220.388 942.544 215.036L880.25 96.714Z" fill="#F0F0F0"/>
</g>
<path d="M255.75 94.7139C263.259 80.4506 283.692 80.4756 291.167 94.7568L353.048 212.992C355.862 218.37 360.967 222.179 366.924 223.346L492.458 247.931C507.465 250.87 513.756 268.88 503.842 280.523L414.353 385.626C410.631 389.996 408.968 395.755 409.784 401.437L428.277 530.153C430.53 545.833 414.528 557.784 400.133 551.172L281.997 496.903C276.612 494.43 270.408 494.471 265.057 497.017L150.898 551.325C136.86 558.004 120.903 546.814 122.399 531.34L135.665 394.141C136.198 388.629 134.421 383.143 130.759 378.989L44.043 280.636C33.8317 269.054 40.0392 250.76 55.1904 247.784L179.614 223.344C185.549 222.178 190.638 218.388 193.456 213.036L255.75 94.7139Z" fill="#FFC107"/>
<path d="M255.75 94.7139C263.259 80.4506 283.692 80.4756 291.167 94.7568L353.048 212.992C355.862 218.37 360.967 222.179 366.924 223.346L492.458 247.931C507.465 250.87 513.756 268.88 503.842 280.523L414.353 385.626C410.631 389.996 408.968 395.755 409.784 401.437L428.277 530.153C430.53 545.833 414.528 557.784 400.133 551.172L281.997 496.903C276.612 494.43 270.408 494.471 265.057 497.017L150.898 551.325C136.86 558.004 120.903 546.814 122.399 531.34L135.665 394.141C136.198 388.629 134.421 383.143 130.759 378.989L44.043 280.636C33.8317 269.054 40.0392 250.76 55.1904 247.784L179.614 223.344C185.549 222.178 190.638 218.388 193.456 213.036L255.75 94.7139Z" stroke="black"/>
<defs>
<clipPath id="clip0_2_262">
<rect width="296" height="560" fill="white" transform="translate(566 34)"/>
</clipPath>
<clipPath id="clip1_2_262">
<rect width="296" height="560" fill="white" transform="matrix(-1 0 0 1 1158 34)"/>
</clipPath>
</defs>
</svg>
