<svg width="2950" height="628" viewBox="0 0 2950 628" fill="none" xmlns="http://www.w3.org/2000/svg">
<path d="M256.75 94.7139C264.259 80.4506 284.692 80.4756 292.167 94.7568L354.048 212.992C356.862 218.37 361.967 222.179 367.924 223.346L493.458 247.931C508.465 250.87 514.756 268.88 504.842 280.523L415.353 385.626C411.631 389.996 409.968 395.755 410.784 401.437L429.277 530.153C431.53 545.833 415.528 557.784 401.133 551.172L282.997 496.903C277.612 494.43 271.408 494.471 266.057 497.017L151.898 551.325C137.86 558.004 121.903 546.814 123.399 531.34L136.665 394.141C137.198 388.629 135.421 383.143 131.759 378.989L45.043 280.636C34.8317 269.054 41.0392 250.76 56.1904 247.784L180.614 223.344C186.549 222.178 191.638 218.388 194.456 213.036L256.75 94.7139Z" fill="#FFC107"/>
<path d="M256.75 94.7139C264.259 80.4506 284.692 80.4756 292.167 94.7568L354.048 212.992C356.862 218.37 361.967 222.179 367.924 223.346L493.458 247.931C508.465 250.87 514.756 268.88 504.842 280.523L415.353 385.626C411.631 389.996 409.968 395.755 410.784 401.437L429.277 530.153C431.53 545.833 415.528 557.784 401.133 551.172L282.997 496.903C277.612 494.43 271.408 494.471 266.057 497.017L151.898 551.325C137.86 558.004 121.903 546.814 123.399 531.34L136.665 394.141C137.198 388.629 135.421 383.143 131.759 378.989L45.043 280.636C34.8317 269.054 41.0392 250.76 56.1904 247.784L180.614 223.344C186.549 222.178 191.638 218.388 194.456 213.036L256.75 94.7139Z" stroke="black"/>
<path d="M837.797 91.0049C848.124 72.199 875.357 72.3821 885.369 91.5117L947.249 209.746L947.425 210.071C949.286 213.395 952.518 215.741 956.269 216.476L1081.8 241.062L1082.28 241.158C1102.04 245.375 1110.32 269.089 1097.48 284.692L1097.17 285.062L1007.68 390.164C1005.26 393.005 1004.18 396.748 1004.71 400.44L1023.21 529.157L1023.27 529.653C1025.89 550.412 1004.83 566.141 985.666 557.737L985.21 557.532L867.075 503.265C863.684 501.707 859.793 501.683 856.391 503.188L856.063 503.338L741.905 557.646C722.954 566.662 701.412 551.555 703.432 530.666L716.697 393.467L716.726 393.131C716.963 389.774 715.888 386.455 713.729 383.874L713.509 383.618L626.793 285.266C613.007 269.63 621.387 244.933 641.841 240.915L766.265 216.475L766.625 216.398C770.328 215.562 773.487 213.145 775.262 209.775V209.774L837.557 91.4531L837.797 91.0049Z" fill="#F0F0F0" stroke="#FFC107" stroke-width="14"/>
<path d="M1424.8 91.0049C1435.12 72.199 1462.36 72.3821 1472.37 91.5117L1534.25 209.746L1534.42 210.071C1536.29 213.395 1539.52 215.741 1543.27 216.476L1668.8 241.062L1669.28 241.158C1689.04 245.375 1697.32 269.089 1684.48 284.692L1684.17 285.062L1594.68 390.164C1592.26 393.005 1591.18 396.748 1591.71 400.44L1610.21 529.157L1610.27 529.653C1612.89 550.412 1591.83 566.141 1572.67 557.737L1572.21 557.532L1454.08 503.265C1450.68 501.707 1446.79 501.683 1443.39 503.188L1443.06 503.338L1328.91 557.646C1309.95 566.662 1288.41 551.555 1290.43 530.666L1303.7 393.467L1303.73 393.131C1303.96 389.774 1302.89 386.455 1300.73 383.874L1300.51 383.618L1213.79 285.266C1200.01 269.63 1208.39 244.933 1228.84 240.915L1353.26 216.475L1353.62 216.398C1357.33 215.562 1360.49 213.145 1362.26 209.775V209.774L1424.56 91.4531L1424.8 91.0049Z" fill="#F0F0F0" stroke="#FFC107" stroke-width="14"/>
<path d="M2011.8 91.0049C2022.12 72.199 2049.36 72.3821 2059.37 91.5117L2121.25 209.746L2121.42 210.071C2123.29 213.395 2126.52 215.741 2130.27 216.476L2255.8 241.062L2256.28 241.158C2276.04 245.375 2284.32 269.089 2271.48 284.692L2271.17 285.062L2181.68 390.164C2179.26 393.005 2178.18 396.748 2178.71 400.44L2197.21 529.157L2197.27 529.653C2199.89 550.412 2178.83 566.141 2159.67 557.737L2159.21 557.532L2041.08 503.265C2037.68 501.707 2033.79 501.683 2030.39 503.188L2030.06 503.338L1915.91 557.646C1896.95 566.662 1875.41 551.555 1877.43 530.666L1890.7 393.467L1890.73 393.131C1890.96 389.774 1889.89 386.455 1887.73 383.874L1887.51 383.618L1800.79 285.266C1787.01 269.63 1795.39 244.933 1815.84 240.915L1940.26 216.475L1940.62 216.398C1944.33 215.562 1947.49 213.145 1949.26 209.775V209.774L2011.56 91.4531L2011.8 91.0049Z" fill="#F0F0F0" stroke="#FFC107" stroke-width="14"/>
<path d="M2598.8 91.0049C2609.12 72.199 2636.36 72.3821 2646.37 91.5117L2708.25 209.746L2708.42 210.071C2710.29 213.395 2713.52 215.741 2717.27 216.476L2842.8 241.062L2843.28 241.158C2863.04 245.375 2871.32 269.089 2858.48 284.692L2858.17 285.062L2768.68 390.164C2766.26 393.005 2765.18 396.748 2765.71 400.44L2784.21 529.157L2784.27 529.653C2786.89 550.412 2765.83 566.141 2746.67 557.737L2746.21 557.532L2628.08 503.265C2624.68 501.707 2620.79 501.683 2617.39 503.188L2617.06 503.338L2502.91 557.646C2483.95 566.662 2462.41 551.555 2464.43 530.666L2477.7 393.467L2477.73 393.131C2477.96 389.774 2476.89 386.455 2474.73 383.874L2474.51 383.618L2387.79 285.266C2374.01 269.63 2382.39 244.933 2402.84 240.915L2527.26 216.475L2527.62 216.398C2531.33 215.562 2534.49 213.145 2536.26 209.775V209.774L2598.56 91.4531L2598.8 91.0049Z" fill="#F0F0F0" stroke="#FFC107" stroke-width="14"/>
</svg>
