<svg width="2950" height="628" viewBox="0 0 2950 628" fill="none" xmlns="http://www.w3.org/2000/svg">
<path d="M256.75 94.7139C264.259 80.4506 284.692 80.4756 292.167 94.7568L354.048 212.992C356.862 218.37 361.967 222.179 367.924 223.346L493.458 247.931C508.465 250.87 514.756 268.88 504.842 280.523L415.353 385.626C411.631 389.996 409.968 395.755 410.784 401.437L429.277 530.153C431.53 545.833 415.528 557.784 401.133 551.172L282.997 496.903C277.612 494.43 271.408 494.471 266.057 497.017L151.898 551.325C137.86 558.004 121.903 546.814 123.399 531.34L136.665 394.141C137.198 388.629 135.421 383.143 131.759 378.989L45.043 280.636C34.8317 269.054 41.0392 250.76 56.1904 247.784L180.614 223.344C186.549 222.178 191.638 218.388 194.456 213.036L256.75 94.7139Z" fill="#FFC107"/>
<path d="M256.75 94.7139C264.259 80.4506 284.692 80.4756 292.167 94.7568L354.048 212.992C356.862 218.37 361.967 222.179 367.924 223.346L493.458 247.931C508.465 250.87 514.756 268.88 504.842 280.523L415.353 385.626C411.631 389.996 409.968 395.755 410.784 401.437L429.277 530.153C431.53 545.833 415.528 557.784 401.133 551.172L282.997 496.903C277.612 494.43 271.408 494.471 266.057 497.017L151.898 551.325C137.86 558.004 121.903 546.814 123.399 531.34L136.665 394.141C137.198 388.629 135.421 383.143 131.759 378.989L45.043 280.636C34.8317 269.054 41.0392 250.76 56.1904 247.784L180.614 223.344C186.549 222.178 191.638 218.388 194.456 213.036L256.75 94.7139Z" stroke="black"/>
<path d="M2598.8 91.0049C2609.12 72.199 2636.36 72.3821 2646.37 91.5117L2708.25 209.746L2708.42 210.071C2710.29 213.395 2713.52 215.741 2717.27 216.476L2842.8 241.062L2843.28 241.158C2863.04 245.375 2871.32 269.089 2858.48 284.692L2858.17 285.062L2768.68 390.164C2766.26 393.005 2765.18 396.748 2765.71 400.44L2784.21 529.157L2784.27 529.653C2786.89 550.412 2765.83 566.141 2746.67 557.737L2746.21 557.532L2628.08 503.265C2624.68 501.707 2620.79 501.683 2617.39 503.188L2617.06 503.338L2502.91 557.646C2483.95 566.662 2462.41 551.555 2464.43 530.666L2477.7 393.467L2477.73 393.131C2477.96 389.774 2476.89 386.455 2474.73 383.874L2474.51 383.618L2387.79 285.266C2374.01 269.63 2382.39 244.933 2402.84 240.915L2527.26 216.475L2527.62 216.398C2531.33 215.562 2534.49 213.145 2536.26 209.775V209.774L2598.56 91.4531L2598.8 91.0049Z" fill="#F0F0F0" stroke="#FFC107" stroke-width="14"/>
<path d="M843.75 94.7139C851.259 80.4506 871.692 80.4756 879.167 94.7568L941.048 212.992C943.862 218.37 948.967 222.179 954.924 223.346L1080.46 247.931C1095.47 250.87 1101.76 268.88 1091.84 280.523L1002.35 385.626C998.631 389.996 996.968 395.755 997.784 401.437L1016.28 530.153C1018.53 545.833 1002.53 557.784 988.133 551.172L869.997 496.903C864.612 494.43 858.408 494.471 853.057 497.017L738.898 551.325C724.86 558.004 708.903 546.814 710.399 531.34L723.665 394.141C724.198 388.629 722.421 383.143 718.759 378.989L632.043 280.636C621.832 269.054 628.039 250.76 643.19 247.784L767.614 223.344C773.549 222.178 778.638 218.388 781.456 213.036L843.75 94.7139Z" fill="#FFC107"/>
<path d="M843.75 94.7139C851.259 80.4506 871.692 80.4756 879.167 94.7568L941.048 212.992C943.862 218.37 948.967 222.179 954.924 223.346L1080.46 247.931C1095.47 250.87 1101.76 268.88 1091.84 280.523L1002.35 385.626C998.631 389.996 996.968 395.755 997.784 401.437L1016.28 530.153C1018.53 545.833 1002.53 557.784 988.133 551.172L869.997 496.903C864.612 494.43 858.408 494.471 853.057 497.017L738.898 551.325C724.86 558.004 708.903 546.814 710.399 531.34L723.665 394.141C724.198 388.629 722.421 383.143 718.759 378.989L632.043 280.636C621.832 269.054 628.039 250.76 643.19 247.784L767.614 223.344C773.549 222.178 778.638 218.388 781.456 213.036L843.75 94.7139Z" stroke="black"/>
<path d="M1430.75 94.7139C1438.26 80.4506 1458.69 80.4756 1466.17 94.7568L1528.05 212.992C1530.86 218.37 1535.97 222.179 1541.92 223.346L1667.46 247.931C1682.47 250.87 1688.76 268.88 1678.84 280.523L1589.35 385.626C1585.63 389.996 1583.97 395.755 1584.78 401.437L1603.28 530.153C1605.53 545.833 1589.53 557.784 1575.13 551.172L1457 496.903C1451.61 494.43 1445.41 494.471 1440.06 497.017L1325.9 551.325C1311.86 558.004 1295.9 546.814 1297.4 531.34L1310.67 394.141C1311.2 388.629 1309.42 383.143 1305.76 378.989L1219.04 280.636C1208.83 269.054 1215.04 250.76 1230.19 247.784L1354.61 223.344C1360.55 222.178 1365.64 218.388 1368.46 213.036L1430.75 94.7139Z" fill="#FFC107"/>
<path d="M1430.75 94.7139C1438.26 80.4506 1458.69 80.4756 1466.17 94.7568L1528.05 212.992C1530.86 218.37 1535.97 222.179 1541.92 223.346L1667.46 247.931C1682.47 250.87 1688.76 268.88 1678.84 280.523L1589.35 385.626C1585.63 389.996 1583.97 395.755 1584.78 401.437L1603.28 530.153C1605.53 545.833 1589.53 557.784 1575.13 551.172L1457 496.903C1451.61 494.43 1445.41 494.471 1440.06 497.017L1325.9 551.325C1311.86 558.004 1295.9 546.814 1297.4 531.34L1310.67 394.141C1311.2 388.629 1309.42 383.143 1305.76 378.989L1219.04 280.636C1208.83 269.054 1215.04 250.76 1230.19 247.784L1354.61 223.344C1360.55 222.178 1365.64 218.388 1368.46 213.036L1430.75 94.7139Z" stroke="black"/>
<path d="M2017.75 94.7139C2025.26 80.4506 2045.69 80.4756 2053.17 94.7568L2115.05 212.992C2117.86 218.37 2122.97 222.179 2128.92 223.346L2254.46 247.931C2269.47 250.87 2275.76 268.88 2265.84 280.523L2176.35 385.626C2172.63 389.996 2170.97 395.755 2171.78 401.437L2190.28 530.153C2192.53 545.833 2176.53 557.784 2162.13 551.172L2044 496.903C2038.61 494.43 2032.41 494.471 2027.06 497.017L1912.9 551.325C1898.86 558.004 1882.9 546.814 1884.4 531.34L1897.67 394.141C1898.2 388.629 1896.42 383.143 1892.76 378.989L1806.04 280.636C1795.83 269.054 1802.04 250.76 1817.19 247.784L1941.61 223.344C1947.55 222.178 1952.64 218.388 1955.46 213.036L2017.75 94.7139Z" fill="#FFC107"/>
<path d="M2017.75 94.7139C2025.26 80.4506 2045.69 80.4756 2053.17 94.7568L2115.05 212.992C2117.86 218.37 2122.97 222.179 2128.92 223.346L2254.46 247.931C2269.47 250.87 2275.76 268.88 2265.84 280.523L2176.35 385.626C2172.63 389.996 2170.97 395.755 2171.78 401.437L2190.28 530.153C2192.53 545.833 2176.53 557.784 2162.13 551.172L2044 496.903C2038.61 494.43 2032.41 494.471 2027.06 497.017L1912.9 551.325C1898.86 558.004 1882.9 546.814 1884.4 531.34L1897.67 394.141C1898.2 388.629 1896.42 383.143 1892.76 378.989L1806.04 280.636C1795.83 269.054 1802.04 250.76 1817.19 247.784L1941.61 223.344C1947.55 222.178 1952.64 218.388 1955.46 213.036L2017.75 94.7139Z" stroke="black"/>
</svg>
